<?xml version="1.0" encoding="utf-8"?>
<!-- Generator: Adobe Illustrator 23.0.3, SVG Export Plug-In . SVG Version: 6.00 Build 0)  -->
<svg version="1.1" id="Layer_1" xmlns="http://www.w3.org/2000/svg" xmlns:xlink="http://www.w3.org/1999/xlink" x="0px" y="0px"
	 viewBox="0 0 210 60" style="enable-background:new 0 0 210 60;" xml:space="preserve">
<style type="text/css">
	.st0{fill:#FFFFFF;}
	.st1{fill-rule:evenodd;clip-rule:evenodd;fill:#FFFFFF;}
</style>
<g>
	<g>
		<path class="st0" d="M33.3,3.3c2.5-1.1,5.2-1.7,7.9-1.8c2.7-0.1,5.4,0.3,8,1.2c2.6,0.9,5,2.2,7.1,4c0.2,0.2,0.4,0.3,0.6,0.5
			c-1.4,1.5-2.8,2.9-4.2,4.4c-1-0.9-2.1-1.7-3.3-2.3c-2.3-1.2-5-1.8-7.7-1.8c-2.7,0.1-5.3,0.8-7.6,2.2c-2.1,1.2-3.8,2.9-5.2,4.9
			c-1.4,2-2.2,4.4-2.5,6.9c-0.3,2.7,0.1,5.6,1.2,8.1c1.1,2.4,2.8,4.6,4.9,6.2c1,0.8,2.1,1.4,3.3,1.9c2.8,1.2,5.9,1.6,8.9,1.1
			c0.1,0,0.2,0,0.3-0.1c1.2-0.2,2.3-0.6,3.4-1c0.5-0.2,1-0.5,1.5-0.8c0.9-0.5,1.8-1.2,2.6-1.9c0.9-0.9,1.7-1.9,2.2-3
			c0.8-1.5,1.2-3.1,1.3-4.8c-2.6,0-5.2,0-7.9,0c-2.1,0-4.1,0-6.2,0c0-1.9,0-3.9,0-5.8c6.7,0,13.3,0,20,0c0.2,1.6,0.3,3.1,0.2,4.7
			c-0.1,2.6-0.7,5.2-1.7,7.5c-0.9,2.1-2.2,4.1-3.9,5.7C54.9,40.7,53,42,51,42.9c-0.6,0.3-1.2,0.5-1.8,0.7c-0.3,0.1-0.6,0.2-0.9,0.3
			c-2.8,0.8-5.8,1.1-8.7,0.8c-2.5-0.3-5-1-7.3-2.1c-2-1-3.8-2.2-5.4-3.7c-1.8-1.7-3.3-3.6-4.4-5.8c-1-1.9-1.7-4-2.1-6.1
			c-0.5-2.9-0.5-5.9,0.2-8.7c0.7-3.1,2.1-6,4-8.4C26.8,7,29.9,4.7,33.3,3.3z"/>
		<path class="st0" d="M133.8,17.7c1.2-0.5,2.5-0.8,3.9-0.9c1.3,0,2.7,0.2,3.9,0.7c1.5,0.6,2.9,1.5,4.1,2.5c0-0.7,0-1.5,0.1-2.2
			c1.7,0,3.5,0,5.2,0c0.2,0,0.3,0,0.5,0c0,1.6,0,3.2,0,4.9c0,6.7,0,13.4,0,20.1c0,0.6,0,1.3,0,1.9c-0.1,1.4-0.3,2.7-0.8,4
			c-0.4,1.1-0.8,2.1-1.4,3c-1.1,1.8-2.8,3.3-4.6,4.2c-0.3,0.2-0.6,0.3-1,0.4c-1.4,0.4-2.8,0.7-4.2,0.8c-1.6,0.1-3.2,0-4.7-0.3
			c-1.2-0.3-2.4-0.8-3.5-1.4c-0.9-0.6-1.7-1.2-2.5-2c-1.1-1.2-2-2.6-2.7-4.2c1.8-0.8,3.5-1.5,5.3-2.3c0.4,0.9,1,1.8,1.7,2.6
			c0.7,0.8,1.6,1.5,2.7,2c0.7,0.3,1.5,0.4,2.3,0.4c0.2,0,0.3,0,0.5,0c1.3,0,2.6-0.3,3.7-0.9c0.9-0.5,1.7-1.2,2.2-2
			c0.7-1,1.1-2.2,1.3-3.4c0.2-1.3,0.2-2.6,0.1-3.8c-0.4,0.4-0.9,0.7-1.4,1c-0.9,0.6-1.9,1.2-3,1.5c-1.4,0.5-2.9,0.7-4.4,0.5
			c-1.2-0.1-2.4-0.4-3.5-0.9c-1.1-0.5-2.1-1-3.1-1.7c-0.5-0.3-1-0.8-1.4-1.3c-0.8-0.8-1.5-1.7-2-2.7c-1.2-1.9-2-4.1-2.2-6.4
			c-0.1-1.4,0-2.8,0.4-4.1c0.4-1.6,1.2-3.1,2.1-4.5c0.4-0.5,0.8-1.1,1.2-1.6c0.7-0.8,1.5-1.4,2.3-2.1
			C131.7,18.7,132.7,18.1,133.8,17.7 M138.2,22.4c-1.1,0.1-2.2,0.5-3.2,1.1c-1,0.6-1.8,1.5-2.5,2.5c-0.6,1-1.1,2.1-1.3,3.3
			c-0.2,1.3-0.2,2.6,0.1,3.9c0.3,1.1,0.8,2.2,1.4,3.1c0.7,0.9,1.5,1.7,2.5,2.3c1.2,0.6,2.5,1,3.8,0.9c1.2-0.1,2.4-0.5,3.4-1.2
			c0.9-0.6,1.7-1.4,2.3-2.4c1.3-2.1,1.7-4.7,1.2-7.1c-0.3-1.1-0.8-2.2-1.5-3.2c-0.7-0.9-1.5-1.7-2.5-2.2
			C140.9,22.6,139.5,22.3,138.2,22.4z"/>
	</g>
	<g>
		<path class="st0" d="M155.7,2.9c2,0,4.1,0,6.1,0c0,13.7,0,27.3,0,41c-2,0-4.1,0-6.1,0C155.7,30.2,155.7,16.6,155.7,2.9z"/>
	</g>
	<g>
		<path class="st0" d="M77.1,16.8c2.5-0.2,5,0.3,7.2,1.5c1.8,0.9,3.4,2.2,4.6,3.7c1,1.2,1.8,2.7,2.3,4.2c1.1,3.1,1.1,6.6-0.1,9.6
			c-0.8,2.2-2.3,4.2-4.1,5.8c-1.1,0.9-2.2,1.6-3.5,2.2c-1.5,0.7-3.2,1-4.8,1.1c-2,0.1-4.1-0.2-5.9-1c-2.1-0.9-4-2.2-5.5-4
			c-1.5-1.7-2.5-3.8-3-6c-0.6-2.7-0.4-5.5,0.6-8c0.8-2.2,2.2-4.2,4.1-5.7c1.9-1.6,4.1-2.7,6.5-3.1C76,16.9,76.5,16.9,77.1,16.8
			 M77.5,22.5c-1.2,0.1-2.4,0.5-3.4,1.1c-1,0.6-1.8,1.4-2.5,2.3c-0.6,0.9-1.1,1.9-1.3,3c-0.3,1.3-0.3,2.7-0.1,4
			c0.2,1.2,0.7,2.3,1.4,3.3c0.6,0.9,1.5,1.7,2.4,2.2c0.8,0.5,1.8,0.9,2.8,1c1.3,0.2,2.6,0.1,3.7-0.4c0.8-0.3,1.5-0.7,2.1-1.2
			c1.2-1,2.2-2.4,2.7-3.9c0.7-2.1,0.6-4.5-0.3-6.6c-0.8-1.7-2.1-3.2-3.8-4C80.2,22.6,78.8,22.4,77.5,22.5z"/>
		<path class="st0" d="M175.8,17.1c1.3-0.2,2.6-0.2,3.8,0c2,0.3,4,1.2,5.5,2.5c1.3,1.1,2.4,2.5,3.2,4c0.6,1.2,1.2,2.4,1.6,3.6
			c-1.4,0.6-2.8,1.2-4.2,1.8c-1.7,0.7-3.3,1.4-5,2.1c-3.1,1.3-6.2,2.6-9.4,3.9c0.4,0.8,0.9,1.6,1.5,2.2c0.7,0.7,1.5,1.2,2.3,1.6
			c1,0.4,2.1,0.5,3.1,0.4c1.1-0.1,2.2-0.3,3.2-0.8c0.8-0.4,1.5-0.9,2.2-1.5c0.5-0.5,0.9-1,1.3-1.6c1.5,1,3.1,2.1,4.6,3.1
			c-0.8,1.2-1.7,2.2-2.8,3.1c-1.2,1-2.7,1.8-4.2,2.3c-2,0.7-4.1,0.9-6.2,0.6c-2.1-0.3-4-1-5.8-2.2c-1.7-1.2-3.2-2.7-4.3-4.5
			c-1.2-2.1-1.9-4.5-1.9-6.9c0-2.5,0.6-5.1,1.9-7.3c1.1-1.9,2.7-3.5,4.5-4.7c1-0.6,2.1-1.1,3.2-1.5
			C174.7,17.3,175.3,17.2,175.8,17.1 M175.4,22.8c-0.5,0.2-1,0.4-1.4,0.6c-0.4,0.2-0.8,0.5-1.2,0.8c-0.8,0.7-1.4,1.7-1.7,2.7
			c-0.4,1.1-0.6,2.4-0.6,3.6c4.2-1.8,8.4-3.5,12.5-5.3c-0.4-0.6-0.9-1.2-1.4-1.7c-0.7-0.6-1.6-1-2.6-1.1
			C177.8,22.2,176.5,22.4,175.4,22.8z"/>
	</g>
	<g>
		<path class="st0" d="M107.6,16.8c2.7-0.2,5.4,0.5,7.7,1.8c2.1,1.1,3.8,2.8,5.1,4.8c1.4,2.2,2.1,4.7,2.1,7.3c0,2.5-0.6,5.1-1.9,7.3
			c-1.1,2-2.8,3.6-4.7,4.8c-1,0.6-2,1.1-3,1.4c-1.4,0.5-2.9,0.7-4.4,0.7c-1.5,0-3-0.2-4.4-0.7c-2.2-0.7-4.3-2-5.9-3.8
			c-1.6-1.7-2.7-3.8-3.3-6c-0.7-2.8-0.6-5.8,0.4-8.5c0.8-2.1,2-3.9,3.6-5.4c1.7-1.6,3.7-2.7,5.9-3.3C105.7,17,106.6,16.9,107.6,16.8
			 M107.9,22.5c-1.5,0.1-2.9,0.7-4,1.6c-1.7,1.3-2.9,3.3-3.2,5.5c-0.2,1.4-0.1,2.9,0.4,4.3c0.7,2.1,2.2,3.9,4.2,4.8
			c1.3,0.6,2.8,0.9,4.2,0.7c1.2-0.2,2.4-0.6,3.4-1.3c0.9-0.6,1.7-1.5,2.2-2.4c0.6-1,1-2,1.2-3.1c0.2-1.4,0.1-2.9-0.3-4.2
			c-0.3-1-0.8-2-1.5-2.8c-0.7-0.9-1.6-1.6-2.7-2.1C110.6,22.6,109.2,22.4,107.9,22.5z"/>
	</g>
	<g>
		<path class="st0" d="M106.8,49.1c0.6,0,1.2,0,1.8,0c0,1.5,0,3,0,4.5c-0.1,0.2,0,0.4-0.1,0.5c0,0.1,0,0.3,0,0.5c0,0.1,0,0.1,0,0.2
			c0,0,0.1-0.1,0.1-0.1c0-0.1,0.1-0.1,0.1-0.2c0-0.1,0.1-0.1,0.1-0.2c0,0,0.1-0.1,0.1-0.1c0-0.1,0.1-0.1,0.1-0.2
			c0,0,0.1-0.1,0.1-0.2c0,0,0.1-0.1,0.1-0.2c0.1-0.1,0.2-0.2,0.3-0.3c0.1-0.1,0.2-0.2,0.3-0.4c0.1-0.2,0.3-0.3,0.4-0.4
			c0.1-0.2,0.3-0.3,0.4-0.4c0.1-0.1,0.3-0.2,0.4-0.4c0-0.1,0.1-0.1,0.2-0.2c0.7,0,1.4,0,2,0c0,0-0.1,0.1-0.1,0.1
			c-0.1,0.1-0.3,0.2-0.3,0.4c-0.1,0.1-0.2,0.2-0.3,0.3c-0.1,0.2-0.3,0.3-0.4,0.4c-0.1,0.1-0.3,0.2-0.3,0.4c-0.1,0.1-0.3,0.2-0.3,0.4
			c-0.1,0.1-0.3,0.2-0.3,0.4c-0.1,0.1-0.3,0.2-0.3,0.4c0,0.1-0.2,0.1-0.1,0.2c0,0,0.1,0.1,0.1,0.1c0,0,0.1,0.1,0.1,0.1
			c0,0,0.1,0.1,0.1,0.1c0,0.1,0.1,0.1,0.1,0.2c0,0,0.1,0.1,0.1,0.1c0,0,0,0,0,0.1c0,0.1,0.1,0.1,0.1,0.2c0,0,0,0.1,0.1,0.1
			c0,0.1,0.1,0.1,0.1,0.2c0,0,0,0.1,0.1,0.1c0,0,0.1,0.1,0.1,0.1c0,0,0.1,0.1,0.1,0.1c0,0.1,0.1,0.1,0.1,0.2c0,0,0,0.1,0.1,0.1
			c0,0.1,0.1,0.1,0.1,0.2c0,0,0,0.1,0.1,0.1c0,0.1,0.1,0.1,0.1,0.2c0,0,0.1,0.1,0.1,0.1c0,0,0,0,0,0.1c0,0,0.1,0.1,0.1,0.1
			c0,0,0.1,0.1,0.1,0.1c0,0.1,0.1,0.1,0.1,0.2c0,0,0,0.1,0.1,0.1c0,0.1,0.1,0.1,0.1,0.2c0,0,0.1,0.1,0.1,0.1c0,0,0.1,0.1,0.1,0.1
			c0,0,0,0.1,0.1,0.1c0,0.1,0.1,0.1,0.1,0.2c0,0,0,0.1,0.1,0.1c0,0.1,0.1,0.1,0.1,0.2c0,0,0,0,0.1,0.1c-0.7,0-1.4,0-2.1,0
			c0,0-0.1,0-0.1-0.1c0,0-0.1-0.1-0.1-0.1c0,0,0,0,0-0.1c0,0,0-0.1-0.1-0.1c0-0.1-0.1-0.1-0.1-0.2c0,0,0,0,0-0.1
			c0-0.1-0.1-0.1-0.1-0.2c0,0,0,0,0-0.1c0-0.1-0.1-0.1-0.1-0.2c0,0,0,0,0-0.1c0-0.1-0.1-0.1-0.1-0.2c0,0,0,0,0-0.1
			c0-0.1-0.1-0.1-0.1-0.2c0,0,0,0,0-0.1c0-0.1-0.1-0.1-0.1-0.2c0,0,0,0,0-0.1c0-0.1-0.1-0.1-0.1-0.2c0,0,0,0,0-0.1
			c0,0,0-0.1-0.1-0.1c0-0.1-0.1-0.1-0.1-0.2c0,0,0,0,0-0.1c0-0.1-0.1-0.1-0.1-0.2c0,0,0,0,0-0.1c0-0.1-0.1-0.1-0.1-0.2
			c0,0,0-0.1-0.1-0.1c0,0,0-0.1-0.1-0.1c0,0-0.1,0.1-0.1,0.1c-0.1,0-0.1,0.1-0.2,0.1c-0.1,0-0.1,0.1-0.2,0.1c0,0-0.1,0.1-0.1,0.1
			c-0.1,0-0.1,0.1-0.2,0.1c0,0.7,0,1.3,0,2c-0.6,0-1.2,0-1.8,0C106.8,55.3,106.8,52.2,106.8,49.1z"/>
		<path class="st0" d="M83.7,49.7c0.9,0,1.7,0,2.6,0c0.1,0,0.1,0,0.2,0c0.3,0,0.5,0,0.8,0c0.1,0.1,0.2,0,0.3,0.1c0.1,0,0.1,0,0.2,0
			c0.1,0,0.1,0,0.2,0c0.1,0,0.2,0,0.2,0.1c0,0,0.1,0,0.1,0c0,0,0.1,0,0.2,0c0,0,0.1,0,0.1,0c0,0,0.1,0,0.1,0c0,0,0.1,0,0.1,0
			c0,0,0.1,0,0.1,0c0,0,0.1,0,0.1,0c0.1,0,0.1,0.1,0.2,0.1c0.1,0,0.1,0.1,0.2,0.1c0,0,0.1,0.1,0.1,0.1c0.1,0.1,0.2,0.1,0.2,0.2
			c0,0,0,0.1,0.1,0.1c0,0,0,0.1,0.1,0.1c0,0,0,0.1,0.1,0.1c0,0,0,0.1,0,0.1c0,0,0,0.1,0,0.1c0,0,0,0.1,0,0.1c0,0,0,0.1,0,0.1
			c0,0,0,0.1,0,0.1c0,0.1,0,0.2,0,0.3c0,0.1,0,0.2,0,0.2c0,0.1,0,0.2,0,0.3c0,0.1,0,0.1,0,0.2c0,0.1,0,0.1,0,0.2c0,0,0,0.1,0,0.1
			c0,0.1,0,0.1-0.1,0.2c0,0,0,0,0,0.1c0,0,0,0.1-0.1,0.1c0,0.1-0.1,0.1-0.1,0.2c0,0,0,0,0,0.1c-0.1,0.1-0.2,0.2-0.3,0.3
			c-0.1,0-0.1,0.1-0.2,0.1c0,0-0.1,0-0.1,0c0,0-0.1,0-0.1,0c0,0-0.1,0-0.1,0c0,0-0.1,0-0.1,0c0,0.1,0.1,0.1,0.1,0.1c0,0,0,0,0.1,0
			c0,0,0.1,0,0.2,0c0.1,0,0.1,0.1,0.2,0.1c0,0,0.1,0,0.1,0c0,0,0.1,0,0.1,0.1c0,0,0.1,0,0.1,0.1c0.1,0.1,0.2,0.2,0.3,0.3
			c0,0,0,0.1,0.1,0.1c0,0.1,0.1,0.1,0.1,0.2c0,0,0,0.1,0,0.1c0,0,0,0.1,0,0.1c0,0,0,0.1,0,0.2c0,0.1,0,0.1,0,0.2c0,0,0,0.1,0,0.1
			c0,0.1,0,0.1,0,0.2c0,0.2,0,0.3,0,0.5c0,0,0,0,0,0.1c0,0.1,0,0.2,0,0.3c0,0,0,0.1,0,0.1c0,0,0,0,0,0.1c0,0,0,0.1,0,0.1
			c0,0.1,0,0.1,0,0.2c0,0,0,0.1,0,0.1c0,0,0,0.1-0.1,0.1c0,0.1-0.1,0.1-0.1,0.2c0,0,0,0.1-0.1,0.1c-0.1,0.1-0.2,0.2-0.3,0.3
			c-0.1,0.1-0.2,0.2-0.3,0.2c-0.1,0-0.1,0.1-0.2,0.1c0,0-0.1,0.1-0.1,0.1c-0.1,0-0.1,0.1-0.2,0.1c0,0-0.1,0-0.1,0c0,0-0.1,0-0.1,0
			c-0.1,0-0.1,0-0.2,0.1c0,0-0.1,0-0.1,0c0,0,0,0-0.1,0c-0.1,0-0.1,0-0.2,0c-0.1,0-0.1,0-0.2,0c0,0-0.1,0-0.1,0
			c-0.1,0.1-0.2,0-0.3,0c-0.1,0-0.1,0-0.2,0c-1.2,0-2.4,0-3.6,0C83.7,55.5,83.7,52.6,83.7,49.7 M85.6,51.2c0,0.6,0,1.3,0,1.9
			c0.5,0,1,0,1.5,0c0.1,0,0.2,0,0.2,0c0,0,0.1,0,0.1,0c0.1,0,0.1,0,0.1-0.1c0.1,0,0.1-0.1,0.2-0.1c0.1,0,0.1-0.1,0.1-0.1
			c0-0.1,0.1-0.1,0.1-0.2c0,0,0-0.1,0-0.2c0,0,0-0.1,0-0.2c0-0.1,0-0.2,0-0.3c0-0.1,0-0.1,0-0.2c0,0,0,0,0-0.1c0,0-0.1-0.1-0.1-0.1
			c0-0.1-0.1-0.1-0.2-0.2c0,0-0.1-0.1-0.2-0.1c-0.1,0-0.1,0-0.2-0.1c0,0,0,0-0.1,0c-0.1,0-0.1,0-0.2,0c-0.1-0.1-0.2,0-0.3,0
			c0,0,0,0,0,0C86.4,51.2,86,51.2,85.6,51.2 M85.6,54.6c0,0.8,0,1.5,0,2.3c0.5,0,1,0,1.5,0c0.1,0,0.1,0,0.2,0c0.1,0,0.1,0,0.2,0
			c0,0,0.1,0,0.1,0c0,0,0.1,0,0.1,0c0,0,0.1,0,0.1,0c0,0,0.1-0.1,0.2-0.1c0.1-0.1,0.2-0.2,0.3-0.3c0,0,0.1-0.1,0.1-0.1
			c0-0.1,0-0.1,0-0.2c0,0,0-0.1,0-0.1c0-0.1,0-0.2,0-0.3c0-0.1,0-0.2,0-0.3c0,0,0-0.1,0-0.1c0,0,0-0.1,0-0.1
			c-0.1-0.2-0.2-0.3-0.3-0.4c0,0-0.1,0-0.1-0.1c-0.1,0-0.1,0-0.2-0.1c0,0,0,0-0.1,0c0,0-0.1,0-0.1,0c-0.1,0-0.2,0-0.2,0
			C86.6,54.6,86.1,54.6,85.6,54.6z"/>
		<path class="st0" d="M94.2,51.7c0,0,0.1,0,0.2,0c0.2,0,0.5,0,0.7,0c0,0,0,0,0.1,0c0,0,0.1,0,0.1,0c0.1,0,0.1,0,0.2,0
			c0,0,0.1,0,0.1,0c0,0,0,0,0.1,0c0.1,0,0.1,0,0.2,0c0,0,0,0,0.1,0c0.1,0,0.1,0,0.2,0.1c0.1,0,0.1,0.1,0.2,0.1c0,0,0.1,0,0.1,0.1
			c0.1,0,0.1,0.1,0.2,0.1c0,0,0.1,0,0.1,0.1c0,0,0,0,0.1,0c0.1,0.1,0.2,0.2,0.3,0.2c0.1,0.1,0.2,0.2,0.2,0.3c0,0,0.1,0.1,0.1,0.1
			c0,0,0,0.1,0.1,0.1c0,0.1,0.1,0.1,0.1,0.2c0,0,0,0.1,0.1,0.1c0,0,0,0.1,0,0.1c0,0.1,0,0.1,0.1,0.2c0,0,0,0.1,0,0.1
			c0,0.1,0,0.1,0,0.2c0,0,0,0,0,0.1c0,0.1,0,0.1,0,0.2c0,0,0,0.1,0,0.1c0,0.1,0,0.1,0,0.2c0,0.1,0,0.2,0.1,0.2c0,0.3,0,0.6,0,0.9
			c-0.1,0.1,0,0.3-0.1,0.4c0,0,0,0.1,0,0.1c0,0,0,0.1,0,0.1c0,0.1,0,0.1,0,0.2c0,0,0,0.1,0,0.1c0,0,0,0.1,0,0.1c0,0,0,0.1,0,0.1
			c0,0,0,0.1,0,0.1c0,0,0,0,0,0.1c0,0.1-0.1,0.2-0.1,0.2c0,0,0,0.1-0.1,0.1c0,0-0.1,0.1-0.1,0.1c0,0.1-0.1,0.1-0.1,0.2
			c0,0-0.1,0.1-0.1,0.1c-0.1,0.1-0.1,0.2-0.2,0.2c0,0-0.1,0.1-0.1,0.1c-0.1,0.1-0.2,0.1-0.3,0.2c-0.1,0-0.1,0.1-0.2,0.1
			c-0.1,0-0.1,0.1-0.2,0.1c0,0,0,0-0.1,0c-0.1,0-0.1,0-0.2,0c0,0-0.1,0-0.1,0c0,0,0,0-0.1,0c0,0-0.1,0-0.1,0c0,0-0.1,0-0.1,0
			c-0.1,0.1-0.3,0-0.4,0c-0.3,0-0.6,0-0.8,0c-0.1-0.1-0.2,0-0.2-0.1c-0.1,0-0.1,0-0.2,0c0,0-0.1,0-0.1,0c0,0,0,0-0.1,0
			c0,0-0.1,0-0.1,0c0,0-0.1,0-0.1,0c-0.1,0-0.1,0-0.2-0.1c0,0,0,0-0.1,0c0,0-0.1,0-0.1-0.1c0,0-0.1,0-0.1,0c0,0-0.1,0-0.1-0.1
			c0,0-0.1,0-0.1-0.1c-0.1,0-0.1-0.1-0.2-0.1c-0.1-0.1-0.3-0.3-0.4-0.4c0-0.1-0.1-0.1-0.1-0.2c0,0-0.1-0.1-0.1-0.1
			c0-0.1-0.1-0.1-0.1-0.2c0,0,0-0.1-0.1-0.1c0-0.1,0-0.1-0.1-0.2c0,0,0-0.1-0.1-0.1c0-0.1,0-0.1,0-0.2c0,0,0,0,0-0.1
			c0,0,0-0.1,0-0.1c0,0,0-0.1,0-0.1c0-0.1,0-0.1,0-0.2c-0.1-0.1,0-0.2-0.1-0.2c0-0.3,0-0.6,0-0.9c0.1-0.1,0-0.3,0-0.4
			c0,0,0-0.1,0-0.1c0,0,0-0.1,0-0.1c0-0.1,0-0.1,0-0.2c0,0,0-0.1,0-0.1c0-0.1,0-0.1,0.1-0.2c0-0.1,0-0.1,0.1-0.2c0,0,0,0,0-0.1
			c0-0.1,0-0.1,0.1-0.2c0-0.1,0.1-0.1,0.1-0.2c0,0,0.1-0.1,0.1-0.1c0-0.1,0.1-0.1,0.1-0.2c0,0,0.1-0.1,0.1-0.1c0,0,0.1-0.1,0.1-0.1
			c0.1,0,0.1-0.1,0.2-0.2c0.1-0.1,0.1-0.1,0.2-0.2c0,0,0.1-0.1,0.1-0.1c0,0,0.1,0,0.1,0c0.1,0,0.1-0.1,0.2-0.1c0,0,0.1,0,0.1-0.1
			c0,0,0.1,0,0.1,0c0.1,0,0.1,0,0.2,0c0,0,0,0,0.1,0c0,0,0.1,0,0.1,0c0.1,0,0.1,0,0.2,0c0,0,0.1,0,0.1,0
			C93.9,51.7,94.1,51.7,94.2,51.7 M94.2,53.1c0,0-0.1,0-0.1,0c0,0-0.1,0-0.1,0c0,0,0,0-0.1,0c-0.1,0-0.1,0.1-0.2,0.1
			c0,0-0.1,0-0.1,0.1c0,0-0.1,0.1-0.1,0.1c0,0.1-0.1,0.1-0.2,0.2c0,0,0,0.1,0,0.1c0,0,0,0.1-0.1,0.1c0,0.1,0,0.1,0,0.2
			c0,0,0,0,0,0.1c0,0,0,0.1,0,0.2c0,0.1,0,0.2-0.1,0.2c0,0.1,0,0.3,0,0.4c0,0.1,0,0.2,0,0.3c0,0.1,0,0.3,0,0.4c0,0.1,0,0.1,0,0.2
			c0,0.1,0,0.1,0,0.2c0,0,0,0,0,0.1c0,0,0,0.1,0,0.1c0,0.1,0,0.1,0.1,0.2c0,0,0,0.1,0.1,0.1c0,0.1,0.1,0.1,0.2,0.2c0,0,0,0,0.1,0.1
			c0,0,0.1,0.1,0.1,0.1c0,0,0.1,0.1,0.1,0.1c0,0,0.1,0,0.1,0c0,0,0,0,0.1,0c0,0,0.1,0,0.1,0c0.1,0,0.2,0,0.3,0c0,0,0.1,0,0.2,0
			c0.1,0,0.2,0,0.3,0c0,0,0,0,0.1,0c0,0,0.1,0,0.1,0c0,0,0.1,0,0.1,0c0,0,0.1-0.1,0.1-0.1c0,0,0.1,0,0.1-0.1c0,0,0,0,0.1-0.1
			c0.1-0.1,0.2-0.2,0.2-0.3c0,0,0,0,0-0.1c0,0,0-0.1,0-0.1c0-0.1,0-0.1,0-0.2c0,0,0,0,0-0.1c0,0,0-0.1,0-0.2c0-0.1,0-0.1,0-0.2
			c0,0,0,0,0-0.1c0-0.3,0-0.7,0-1c0-0.1,0-0.1,0-0.2c0-0.1,0-0.2,0-0.2c0,0,0,0,0-0.1c0-0.1,0-0.1,0-0.2c0,0,0-0.1,0-0.1
			c0-0.1-0.1-0.1-0.1-0.2c-0.1-0.2-0.2-0.3-0.3-0.4c0,0,0,0-0.1,0c0,0-0.1,0-0.1-0.1c0,0-0.1,0-0.1,0c0,0,0,0-0.1,0c0,0-0.1,0-0.1,0
			c-0.1,0-0.2,0-0.3,0C94.4,53.1,94.3,53.1,94.2,53.1z"/>
		<path class="st0" d="M101.7,51.7c0.3,0,0.6,0,0.8,0c0,0,0.1,0,0.2,0c0.1,0,0.1,0,0.2,0c0,0,0.1,0,0.1,0c0,0,0,0,0.1,0
			c0,0,0.1,0,0.2,0c0,0,0.1,0,0.1,0c0.1,0,0.1,0,0.1,0.1c0.1,0,0.1,0.1,0.2,0.1c0.1,0,0.1,0.1,0.2,0.1c0,0,0.1,0,0.1,0.1
			c0,0,0.1,0,0.1,0.1c0.2,0.1,0.3,0.3,0.5,0.4c0,0.1,0.1,0.1,0.1,0.2c0,0,0,0.1,0.1,0.1c0,0.1,0.1,0.1,0.1,0.2c0,0,0,0.1,0.1,0.1
			c0,0,0,0.1,0,0.1c0,0.1,0,0.1,0.1,0.2c0,0,0,0.1,0.1,0.1c0,0.1,0,0.1,0,0.2c0,0,0,0,0,0.1c0,0.1,0,0.1,0,0.2c0,0,0,0.1,0,0.1
			c0,0.1,0,0.1,0,0.2c0.1,0.1,0,0.2,0.1,0.2c0,0.2,0,0.5,0,0.7c0,0.1,0,0.1,0,0.2c0,0.1,0,0.3,0,0.4c0,0,0,0.1,0,0.1
			c0,0,0,0.1,0,0.1c0,0.1,0,0.1,0,0.2c0,0,0,0.1,0,0.1c0,0,0,0.1,0,0.1c0,0,0,0.1,0,0.1c0,0,0,0,0,0.1c0,0,0,0.1,0,0.1
			c0,0.1-0.1,0.2-0.1,0.2c0,0,0,0.1-0.1,0.1c0,0.1-0.1,0.1-0.1,0.2c0,0,0,0.1-0.1,0.1c0,0.1-0.1,0.1-0.1,0.2
			c-0.1,0.1-0.1,0.2-0.2,0.2c0,0-0.1,0.1-0.1,0.1c-0.1,0-0.1,0.1-0.2,0.2c0,0-0.1,0-0.1,0.1c0,0-0.1,0-0.1,0.1
			c-0.1,0-0.1,0.1-0.2,0.1c0,0,0,0-0.1,0c-0.1,0-0.1,0-0.2,0c0,0-0.1,0-0.1,0c0,0,0,0-0.1,0c0,0-0.1,0-0.1,0c0,0-0.1,0-0.1,0
			c-0.1,0-0.2,0-0.3,0c0,0-0.1,0-0.2,0c-0.2,0-0.5,0-0.7,0c0,0,0,0-0.1,0c-0.1,0-0.1,0-0.1,0c-0.1,0-0.2,0-0.2,0c0,0-0.1,0-0.1,0
			c0,0,0,0-0.1,0c0,0-0.1,0-0.1,0c0,0-0.1,0-0.1,0c0,0-0.1,0-0.1,0c0,0-0.1,0-0.1-0.1c-0.1,0-0.1-0.1-0.2-0.1
			c-0.1,0-0.1-0.1-0.2-0.1c0,0-0.1,0-0.1-0.1c-0.1,0-0.1-0.1-0.2-0.1c-0.1-0.1-0.2-0.2-0.3-0.3c-0.1-0.1-0.1-0.1-0.2-0.2
			c0,0-0.1-0.1-0.1-0.2c0,0-0.1-0.1-0.1-0.2c0-0.1-0.1-0.1-0.1-0.2c0,0,0-0.1-0.1-0.1c0-0.1,0-0.1-0.1-0.2c0,0-0.1-0.1-0.1-0.1
			c0-0.1,0-0.1,0-0.2c0,0,0,0,0-0.1c0,0,0-0.1,0-0.1c0,0,0-0.1,0-0.1c0-0.1,0-0.2,0-0.2c0-0.1,0-0.1,0-0.2c0-0.3,0-0.5,0-0.8
			c0-0.1,0-0.1,0-0.2c0-0.1,0-0.3,0-0.4c0,0,0-0.1,0-0.1c0,0,0-0.1,0-0.1c0-0.1,0-0.1,0-0.2c0,0,0-0.1,0-0.1c0-0.1,0-0.1,0.1-0.2
			c0-0.1,0-0.1,0.1-0.2c0,0,0,0,0-0.1c0-0.1,0-0.1,0.1-0.2c0,0,0-0.1,0-0.1c0,0,0-0.1,0.1-0.1c0-0.1,0.1-0.1,0.1-0.2
			c0,0,0-0.1,0.1-0.1c0-0.1,0.1-0.1,0.1-0.2c0,0,0.1-0.1,0.1-0.1c0.1,0,0.1-0.1,0.2-0.2c0.1,0,0.1-0.1,0.2-0.2c0,0,0.1-0.1,0.2-0.1
			c0,0,0.1-0.1,0.1-0.1c0.1,0,0.1-0.1,0.2-0.1c0,0,0.1,0,0.1-0.1c0.1,0,0.1,0,0.2,0c0,0,0,0,0.1,0c0,0,0.1,0,0.1,0c0,0,0.1,0,0.1,0
			c0,0,0.1,0,0.1,0C101.5,51.7,101.6,51.7,101.7,51.7 M101.8,53.1c0,0-0.1,0-0.1,0c0,0,0,0-0.1,0c0,0-0.1,0-0.1,0c0,0-0.1,0-0.1,0.1
			c0,0-0.1,0.1-0.1,0.1c0,0-0.1,0.1-0.1,0.1c-0.1,0.1-0.2,0.2-0.2,0.3c0,0,0,0.1,0,0.1c0,0.1,0,0.1,0,0.2c0,0,0,0,0,0.1
			c0,0,0,0.1,0,0.2c0,0.1,0,0.2-0.1,0.2c0,0.1,0,0.3,0,0.4c-0.1,0.1,0,0.2,0,0.3c0.1,0.1,0,0.3,0,0.4c0.1,0.1,0,0.2,0.1,0.2
			c0,0.1,0,0.1,0,0.2c0,0,0,0.1,0,0.1c0,0,0,0,0,0.1c0,0.1,0,0.1,0.1,0.2c0,0,0,0.1,0.1,0.1c0,0.1,0.1,0.2,0.2,0.2c0,0,0,0,0.1,0.1
			c0,0,0.1,0,0.1,0.1c0,0,0.1,0.1,0.2,0.1c0,0,0.1,0,0.1,0c0,0,0,0,0.1,0c0,0,0.1,0,0.1,0c0.1,0,0.2,0,0.3,0c0,0,0.1,0,0.2,0
			c0.1,0,0.2,0,0.3,0c0,0,0.1,0,0.1,0c0,0,0.1,0,0.1,0c0,0,0,0,0.1,0c0.1,0,0.1-0.1,0.2-0.1c0,0,0.1,0,0.1-0.1c0,0,0,0,0.1-0.1
			c0-0.1,0.1-0.1,0.2-0.2c0,0,0-0.1,0.1-0.1c0-0.1,0.1-0.1,0.1-0.2c0-0.1,0-0.1,0-0.2c0,0,0,0,0-0.1c0,0,0-0.1,0-0.2
			c0.1-0.1,0-0.2,0.1-0.2c0-0.3,0-0.6,0-0.9c0-0.1,0-0.1,0-0.2c0-0.1,0-0.1,0-0.2c0-0.1,0-0.1,0-0.2c0,0,0,0,0-0.1
			c0-0.1,0-0.1,0-0.2c0,0,0-0.1,0-0.1c0,0,0-0.1,0-0.1c0,0,0-0.1-0.1-0.1c-0.1-0.1-0.2-0.2-0.3-0.3c0,0,0,0-0.1,0c0,0-0.1,0-0.1-0.1
			c0,0-0.1,0-0.1,0c0,0,0,0-0.1,0c0,0-0.1,0-0.1,0c-0.1,0-0.2,0-0.3,0C102,53.1,101.9,53.1,101.8,53.1z"/>
		<path class="st0" d="M116,51.7c0,0,0.1,0,0.2,0c0.3,0,0.6,0,0.9,0c0.1,0,0.2,0,0.2,0c0.1,0,0.1,0,0.2,0c0.1,0,0.1,0,0.2,0
			c0,0,0.1,0,0.1,0c0,0,0.1,0,0.1,0c0,0,0,0,0.1,0c0,0,0.1,0,0.1,0c0.1,0,0.1,0,0.2,0c0,0,0.1,0,0.1,0c0,0,0.1,0,0.1,0
			c0,0,0.1,0,0.2,0.1c0,0,0.1,0,0.1,0c0,0,0.1,0,0.1,0c0,0.1,0,0.1,0,0.2c0,0,0,0.1,0,0.1c0,0,0,0,0,0.1c0,0.1,0,0.1-0.1,0.2
			c0,0.1,0,0.1-0.1,0.2c0,0.1-0.1,0.2-0.1,0.2c0,0.1,0,0.1-0.1,0.2c0,0,0,0.1,0,0.1c0,0,0,0.1,0,0.1c0,0,0,0-0.1,0c0,0-0.1,0-0.1,0
			c-0.1,0-0.1,0-0.2-0.1c-0.1,0-0.1,0-0.2-0.1c0,0-0.1,0-0.1,0c0,0-0.1,0-0.1,0c0,0-0.1,0-0.1,0c0,0,0,0-0.1,0c-0.1,0-0.1,0-0.2,0
			c0,0-0.1,0-0.1,0c0,0-0.1,0-0.2,0c-0.1-0.1-0.2,0-0.2-0.1c-0.1,0-0.3,0-0.4,0c-0.1,0-0.1,0-0.2,0c0,0-0.1,0-0.1,0c0,0-0.1,0-0.1,0
			c0,0,0,0-0.1,0c0,0.1-0.1,0.1-0.2,0.1c0,0,0,0.1,0,0.1c0,0.1,0,0.2,0,0.2c0,0,0,0,0,0.1c0,0,0.1,0.1,0.1,0.1c0,0,0,0.1,0.1,0.1
			c0,0,0.1,0.1,0.1,0.1c0,0,0.1,0,0.1,0.1c0,0,0.1,0,0.1,0.1c0,0,0.1,0,0.1,0.1c0.1,0,0.1,0.1,0.2,0.1c0,0,0.1,0,0.1,0
			c0.1,0,0.1,0,0.2,0.1c0,0,0.1,0,0.1,0c0.1,0,0.1,0,0.2,0.1c0.1,0.1,0.2,0.1,0.2,0.1c0.1,0,0.1,0.1,0.2,0.1c0,0,0.1,0,0.1,0.1
			c0,0,0.1,0,0.1,0c0,0,0.1,0,0.1,0c0.1,0,0.1,0.1,0.2,0.1c0,0,0.1,0,0.1,0.1c0.1,0.1,0.2,0.2,0.3,0.2c0,0,0.1,0.1,0.1,0.1
			c0,0,0,0.1,0.1,0.1c0,0,0.1,0.1,0.1,0.1c0,0,0,0.1,0.1,0.1c0,0,0,0.1,0,0.1c0,0,0,0,0,0.1c0,0,0,0.1,0,0.1c0,0,0,0.1,0,0.1
			c0,0.1,0,0.2,0,0.3c0,0.1,0,0.2,0,0.2c0,0.1,0,0.2,0,0.2c0,0.1,0,0.2,0,0.3c0,0,0,0.1,0,0.1c0,0,0,0,0,0.1c0,0,0,0.1,0,0.1
			c0,0,0,0.1,0,0.1c0,0.1-0.1,0.1-0.1,0.2c0,0,0,0.1-0.1,0.1c0,0.1-0.1,0.2-0.2,0.2c-0.1,0-0.1,0.1-0.2,0.2c-0.1,0-0.1,0.1-0.2,0.1
			c-0.1,0-0.1,0.1-0.2,0.1c0,0-0.1,0-0.1,0c-0.1,0-0.1,0-0.2,0.1c0,0-0.1,0-0.1,0c0,0-0.1,0-0.1,0c0,0-0.1,0-0.1,0
			c-0.1,0-0.1,0-0.2,0c-0.1,0-0.1,0-0.2,0c-0.1,0-0.1,0-0.2,0c-0.1,0-0.1,0-0.2,0c-0.4,0-0.8,0-1.2,0c0,0,0,0-0.1,0
			c-0.1,0-0.2,0-0.2,0c-0.1,0-0.2,0-0.2,0c-0.1,0-0.1,0-0.2,0c0,0-0.1,0-0.1,0c0,0-0.1,0-0.1,0c0,0-0.1,0-0.1,0c0,0,0,0-0.1,0
			c0,0-0.1,0-0.1-0.1c0,0,0,0-0.1,0c0,0-0.1,0-0.1,0c0,0-0.1,0-0.1,0c0-0.5,0-1,0-1.5c0,0,0.1,0,0.1,0c0,0,0.1,0,0.2,0.1
			c0,0,0.1,0,0.1,0c0.1,0,0.1,0,0.2,0.1c0,0,0,0,0.1,0c0,0,0.1,0,0.1,0c0,0,0.1,0,0.1,0c0.1,0,0.1,0,0.2,0c0,0,0,0,0.1,0
			c0,0,0.1,0,0.1,0c0.1,0,0.1,0,0.2,0c0,0,0.1,0,0.1,0c0,0,0.1,0,0.2,0c0.1,0,0.1,0,0.2,0.1c0.1,0,0.3,0,0.4,0c0.2,0,0.3,0,0.5,0
			c0.1,0,0.1,0,0.2,0c0,0,0.1,0,0.1,0c0,0,0,0,0.1,0c0.1,0,0.1-0.1,0.2-0.1c0.1,0,0.1-0.1,0.1-0.2c0.1-0.1,0.1-0.3,0-0.4
			c0-0.1-0.1-0.1-0.1-0.2c-0.1,0-0.1-0.1-0.2-0.1c0,0-0.1,0-0.1-0.1c-0.1,0-0.2-0.1-0.2-0.1c0,0,0,0-0.1,0c0,0-0.1,0-0.1,0
			c0,0-0.1,0-0.1-0.1c-0.1,0-0.2-0.1-0.2-0.1c0,0-0.1,0-0.1,0c-0.1,0-0.1,0-0.2-0.1c0,0,0,0-0.1,0c-0.1,0-0.1,0-0.2-0.1
			c-0.1,0-0.1-0.1-0.2-0.1c-0.1,0-0.1,0-0.2-0.1c0,0,0,0-0.1,0c-0.1,0-0.1-0.1-0.2-0.1c-0.1,0-0.1-0.1-0.2-0.1c0,0-0.1,0-0.1-0.1
			c-0.1-0.1-0.2-0.2-0.4-0.3c0,0-0.1-0.1-0.1-0.1c0,0,0,0,0-0.1c0-0.1-0.1-0.1-0.1-0.2c0-0.1,0-0.1-0.1-0.2c0,0,0,0,0-0.1
			c0,0,0-0.1,0-0.1c0-0.1,0-0.1,0-0.2c-0.1-0.1,0-0.2,0-0.4c0-0.1,0-0.2,0-0.3c0-0.1,0-0.1,0-0.2c0,0,0-0.1,0-0.1c0,0,0,0,0-0.1
			c0,0,0-0.1,0-0.1c0,0,0-0.1,0.1-0.1c0,0,0.1-0.1,0.1-0.1c0,0,0,0,0-0.1c0-0.1,0.1-0.1,0.2-0.2c0.1,0,0.1-0.2,0.2-0.2
			c0.1,0,0.1-0.1,0.2-0.1c0,0,0.1,0,0.1,0c0.1,0,0.1,0,0.2-0.1c0,0,0.1,0,0.1,0c0,0,0.1,0,0.1,0c0,0,0,0,0.1,0c0,0,0.1,0,0.1,0
			c0,0,0.1,0,0.2,0c0.1,0,0.1,0,0.2,0C115.9,51.7,116,51.7,116,51.7z"/>
	</g>
</g>
</svg>
