<?xml version="1.0" encoding="utf-8"?>
<!-- Generator: Adobe Illustrator 23.0.3, SVG Export Plug-In . SVG Version: 6.00 Build 0)  -->
<svg version="1.1" id="Layer_1" xmlns="http://www.w3.org/2000/svg" xmlns:xlink="http://www.w3.org/1999/xlink" x="0px" y="0px"
	 viewBox="0 0 210 60" style="enable-background:new 0 0 210 60;" xml:space="preserve">
<style type="text/css">
	.st0{fill:#FFFFFF;}
	.st1{fill-rule:evenodd;clip-rule:evenodd;fill:#FFFFFF;}
</style>
<g>
	<path class="st0" d="M163,41.3c0-9.2,0-18.3,0-27.8c4.2,0,8.2-0.1,12.1,0.1c0.6,0,1.3,1.1,1.6,1.8c2.2,6.9,4.3,13.8,6.4,20.7
		c0.4,1.3,0.8,2.5,1.7,3.8c0.8-2.4,1.5-4.8,2.3-7.2c1.7-5.7,3.5-11.4,5.1-17.2c0.4-1.6,1.1-2.1,2.7-2.1c3.3,0.1,6.6,0,10.1,0
		c0,11.1,0,21.9,0,33c-1.7,0-3.4-0.1-5,0c-1.8,0.1-2.3-0.6-2.2-2.3c0.1-6.1,0-12.3,0.1-18.4c0-0.8,0-1.6-0.5-2.5
		c-0.2,0.5-0.5,1.1-0.7,1.6c-2,6.4-4,12.8-5.8,19.3c-0.5,1.7-1.2,2.6-3.1,2.3c-1.3-0.2-2.7,0-4,0c-5.1,0-5.1,0-6.6-5
		c-1.8-5.9-3.6-11.7-5.4-17.6c-0.2-0.6-0.5-1.1-1.3-1.6c0,0.8,0,1.6,0,2.3c0,6.6,0,13.1,0,19.7c0,1.6-0.4,2.2-2.1,2.2
		c-3.2-0.1-6.5,0.1-9.7-0.1c-0.8,0-1.9-0.8-2.4-1.5c-1.4-2.2-2.5-4.5-3.6-6.8c-0.6-1.3-1.5-1.8-2.9-1.7c-4.2,0.1-8.5,0.1-12.7,0
		c-1.4,0-2.3,0.4-2.9,1.8c-1,2.3-2.1,4.5-3.4,6.6c-0.5,0.8-1.6,1.5-2.6,1.7c-5.7,0.9-10.7-0.3-14.3-5.4c-1.3-1.9-3.2-3.3-4.9-5
		c-2.7-2.8-3.7-3-8.2-2.1c0,4,0,8,0,12.3c-2.6,0-4.9,0-7.4,0c0-10.9,0-21.7,0-32.6c1,0,1.9-0.1,2.8-0.1c6.4,0,12.8-0.1,19.2,0
		c4,0.1,7.3,1.6,9.1,5.4c1.8,3.7,1.7,7.6-0.9,10.8c-1.6,2-4.2,3.1-6.4,4.6c2.2,2.1,4.8,4.5,7.5,7c0.4-0.8,1-1.8,1.5-2.8
		c3.8-7.7,7.7-15.4,11.5-23.2c0.7-1.4,1.5-1.7,3-2c5.7-0.9,8.8,1.2,11,6.6c2.6,6.7,6.3,13,9.5,19.4c0.3,0.6,0.7,1.3,1,1.9
		C162.6,41.4,162.8,41.4,163,41.3z M101.1,19.5c0,2.9,0,5.4,0,8c4.9,0,9.5,0.1,14.1-0.1c2.5-0.1,4.1-1.9,4-4c-0.2-2.3-1.5-3.9-3.8-4
		C110.7,19.4,106,19.5,101.1,19.5z M143.5,19.3c-2,4-3.8,7.6-5.7,11.3c4.1,0,7.6,0,11.5,0C147.3,26.8,145.5,23.3,143.5,19.3z"/>
	<path class="st0" d="M53,46.5c-3.7,0-7.3,0.1-10.9-0.1c-0.7,0-1.5-1.2-2-2c-4.6-7.5-9.2-15-13.7-22.5c-0.3-0.5-0.7-1-1.7-1.4
		c0,4.2,0,8.5,0,12.7c0,4.3,0,8.6,0,13.1c-2.5,0-4.7,0-7.2,0c0-10.9,0-21.7,0-32.8c3.9,0,7.8-0.1,11.7,0.1c0.7,0,1.5,0.9,1.9,1.6
		c4.2,7,8.3,14,12.4,21c0.5,0.9,1.1,1.8,2.1,2.6c0.1-0.7,0.2-1.3,0.2-2c0-7,0.1-13.9,0-20.9c0-1.8,0.4-2.6,2.3-2.5
		c1.5,0.1,3.1,0,4.9,0C53,24.6,53,35.4,53,46.5z"/>
	<path class="st0" d="M89.6,13.2c0.3,0.9,0.4,1.1,0.5,1.3c0.6,4.8,0.5,4.9-4.3,4.9c-4,0-8-0.2-12,0c-8.3,0.4-13,8.3-9.3,15.4
		c1.8,3.5,4.9,5.1,8.7,5.3c2.4,0.1,4.8-0.1,7.2,0.1c1.9,0.1,2.5-0.7,2.4-2.5c-0.1-1.2,0-2.5,0-4c-3.9,0-7.6,0-11.5,0
		c0-2.1,0-4,0-6.2c4.4,0,8.9,0,13.4,0c5.4,0,5.5,0,5.5,5.3c0,3.8-0.1,7.6,0,11.5c0,1.6-0.5,2.2-2.1,2.2c-4.8-0.1-9.6,0.1-14.4-0.1
		c-12.1-0.4-19.6-9.8-16.8-21.1c1.4-5.7,5.1-10,10.8-10.9C74.8,13.4,82.4,13.6,89.6,13.2z"/>
	<path class="st0" d="M5,13.6c2.3,0,4.1,0,5.9,0c1.3,0,1.7,0.6,1.7,1.8c0,10.2,0,20.4,0,31.1c-2.3,0-4.5,0.1-6.6-0.1
		c-0.3,0-0.9-0.8-0.9-1.2C5,34.8,5,24.4,5,13.6z"/>
</g>
</svg>
